# xmcd
#
# Track frame offsets:
#	225
#	11314
#	19266
#	30685
#	43859
#	53377
#	66770
#	78781
#	89329
#	100928
#	112650
#	121897
#	132076
#	143430
#	156590
#	167688
#	177912
#	187850
#	199232
#	207798
#	218262
#	235321
#	245275
#
# Disc length: 3432 seconds
#
# Revision: 1
# Processed by: cddbd v1.5.2PL0 Copyright (c) Steve Scherf et al.
# Submitted via: EasyCDDAExtractor 7.0.3.1
#
DISCID=1f0d6517
DTITLE=Johnnie Allan - Essential Collection vol 2
DYEAR=1999
DGENRE=Country
TTITLE0=Secret of Love
TTITLE1=I'll Never Love Again
TTITLE2=This Life I Live
TTITLE3=Talk To Me
TTITLE4=Lovers Question
TTITLE5=Woman Left Lonely
TTITLE6=Look At All the Lonelies
TTITLE7=Sittin and Thinkin
TTITLE8=Could You Love Me One More Time
TTITLE9=My Baby is Gone
TTITLE10=I Trusted You
TTITLE11=A Stranger To You
TTITLE12=She's Gone
TTITLE13=Tennessee Blues
TTITLE14=That Was the Last Time
TTITLE15=Lil' Fat Man
TTITLE16=Another Man's Woman
TTITLE17=I'm Asking Forgiveness
TTITLE18=It Must Be Love
TTITLE19=Nights of Misery
TTITLE20=Ain't No Pleasin You
TTITLE21=Somebody Else
TTITLE22=Bony Maronie
EXTD=
EXTT0=
EXTT1=
EXTT2=
EXTT3=
EXTT4=
EXTT5=
EXTT6=
EXTT7=
EXTT8=
EXTT9=
EXTT10=
EXTT11=
EXTT12=
EXTT13=
EXTT14=
EXTT15=
EXTT16=
EXTT17=
EXTT18=
EXTT19=
EXTT20=
EXTT21=
EXTT22=
PLAYORDER=
